<svg width="416" height="120" viewBox="0 0 208 60" fill="none" xmlns="http://www.w3.org/2000/svg">
<rect x="9" y="6" width="47" height="47.3431" rx="6" fill="#3AB57C"/>
<path d="M43.0266 31.3188H21.2234C21.5961 33.1824 20.8507 44.1772 32.2182 44.3635C41.3122 44.5126 43.213 35.7292 43.0266 31.3188Z" fill="white" stroke="white" stroke-width="0.25"/>
<path d="M31.1 21.6285C29.7334 20.6346 27.8202 17.9014 31.1 14.9198C32.4045 16.0069 34.2307 18.8705 31.1 21.6285Z" fill="white" stroke="white" stroke-width="0.25"/>
<path d="M44.1447 16.4106C33.7835 17.0815 31.6281 24.3927 31.8455 27.9645C32.7772 27.0638 34.6408 25.3556 34.8271 25.1692C35.0135 24.9829 36.0384 23.7716 36.1316 23.6784C36.2061 23.6038 36.1626 22.6534 36.1316 22.1876C36.2061 21.0695 36.7838 21.349 37.0633 21.6285C37.4671 22.0012 38.4796 22.8957 39.2996 23.492C40.3245 24.2374 39.9518 24.517 39.5791 24.7965C39.2064 25.076 38.0883 25.076 37.6224 25.1692C37.2497 25.2437 35.5415 28.1198 34.6408 29.5485C43.9584 29.623 44.8591 20.821 44.1447 16.4106Z" fill="white" stroke="white" stroke-width="0.25"/>
<path d="M29.6092 28.8963C29.8577 26.0388 28.4166 19.9141 20.6643 18.2742C20.8817 21.5975 22.9751 28.3745 29.6092 28.8963Z" fill="white" stroke="white" stroke-width="0.25"/>
<path d="M66.475 13.5C66.875 13.5 67.225 13.65 67.525 13.95C67.8417 14.2333 68 14.5917 68 15.025V29.475C68 29.9083 67.8417 30.275 67.525 30.575C67.2083 30.8583 66.8417 31 66.425 31C65.9583 31 65.5833 30.8583 65.3 30.575C65.0167 30.275 64.875 29.9083 64.875 29.475V15.025C64.875 14.5917 65.025 14.2333 65.325 13.95C65.625 13.65 66.0083 13.5 66.475 13.5ZM77.55 13.5C78.0167 13.5 78.3917 13.65 78.675 13.95C78.9583 14.2333 79.1 14.5917 79.1 15.025V29.475C79.1 29.9083 78.95 30.275 78.65 30.575C78.3667 30.8583 77.9833 31 77.5 31C77.1 31 76.7417 30.8583 76.425 30.575C76.125 30.275 75.975 29.9083 75.975 29.475V15.025C75.975 14.5917 76.1333 14.2333 76.45 13.95C76.7667 13.65 77.1333 13.5 77.55 13.5ZM66.4 20.775H77.55V23.65H66.4V20.775ZM88.8938 31.25C87.4771 31.25 86.2438 30.9583 85.1938 30.375C84.1604 29.775 83.3604 28.9667 82.7938 27.95C82.2438 26.9333 81.9688 25.7833 81.9688 24.5C81.9688 23 82.2688 21.725 82.8688 20.675C83.4854 19.6083 84.2854 18.7917 85.2688 18.225C86.2521 17.6583 87.2938 17.375 88.3938 17.375C89.2438 17.375 90.0438 17.55 90.7938 17.9C91.5604 18.25 92.2354 18.7333 92.8188 19.35C93.4021 19.95 93.8604 20.65 94.1938 21.45C94.5438 22.25 94.7188 23.1 94.7188 24C94.7021 24.4 94.5438 24.725 94.2438 24.975C93.9438 25.225 93.5938 25.35 93.1938 25.35H83.6438L82.8938 22.85H92.0688L91.5188 23.35V22.675C91.4854 22.1917 91.3104 21.7583 90.9938 21.375C90.6938 20.9917 90.3104 20.6917 89.8438 20.475C89.3938 20.2417 88.9104 20.125 88.3938 20.125C87.8938 20.125 87.4271 20.1917 86.9938 20.325C86.5604 20.4583 86.1854 20.6833 85.8688 21C85.5521 21.3167 85.3021 21.7417 85.1188 22.275C84.9354 22.8083 84.8438 23.4833 84.8438 24.3C84.8438 25.2 85.0271 25.9667 85.3938 26.6C85.7771 27.2167 86.2604 27.6917 86.8438 28.025C87.4438 28.3417 88.0771 28.5 88.7438 28.5C89.3604 28.5 89.8521 28.45 90.2188 28.35C90.5854 28.25 90.8771 28.1333 91.0938 28C91.3271 27.85 91.5354 27.725 91.7188 27.625C92.0188 27.475 92.3021 27.4 92.5688 27.4C92.9354 27.4 93.2354 27.525 93.4688 27.775C93.7188 28.025 93.8438 28.3167 93.8438 28.65C93.8438 29.1 93.6104 29.5083 93.1438 29.875C92.7104 30.2417 92.1021 30.5667 91.3188 30.85C90.5354 31.1167 89.7271 31.25 88.8938 31.25ZM98.8398 31C98.4065 31 98.0482 30.8583 97.7648 30.575C97.4815 30.275 97.3398 29.9083 97.3398 29.475V19.15C97.3398 18.7167 97.4815 18.3583 97.7648 18.075C98.0482 17.775 98.4065 17.625 98.8398 17.625C99.2732 17.625 99.6315 17.775 99.9148 18.075C100.198 18.3583 100.34 18.7167 100.34 19.15V21.5L100.165 19.825C100.348 19.425 100.582 19.075 100.865 18.775C101.165 18.4583 101.498 18.2 101.865 18C102.232 17.7833 102.623 17.625 103.04 17.525C103.457 17.425 103.873 17.375 104.29 17.375C104.79 17.375 105.207 17.5167 105.54 17.8C105.89 18.0833 106.065 18.4167 106.065 18.8C106.065 19.35 105.923 19.75 105.64 20C105.357 20.2333 105.048 20.35 104.715 20.35C104.398 20.35 104.107 20.2917 103.84 20.175C103.59 20.0583 103.298 20 102.965 20C102.665 20 102.357 20.075 102.04 20.225C101.74 20.3583 101.457 20.575 101.19 20.875C100.94 21.175 100.732 21.55 100.565 22C100.415 22.4333 100.34 22.95 100.34 23.55V29.475C100.34 29.9083 100.198 30.275 99.9148 30.575C99.6315 30.8583 99.2732 31 98.8398 31ZM115.105 17.375C116.271 17.375 117.313 17.675 118.23 18.275C119.163 18.8583 119.896 19.6667 120.43 20.7C120.98 21.7333 121.255 22.9333 121.255 24.3C121.255 25.6667 120.98 26.875 120.43 27.925C119.896 28.9583 119.171 29.775 118.255 30.375C117.355 30.9583 116.338 31.25 115.205 31.25C114.538 31.25 113.913 31.1417 113.33 30.925C112.746 30.7083 112.23 30.4333 111.78 30.1C111.346 29.7667 111.005 29.4333 110.755 29.1C110.521 28.75 110.405 28.4583 110.405 28.225L111.18 27.9V29.725C111.18 30.1583 111.038 30.525 110.755 30.825C110.471 31.1083 110.113 31.25 109.68 31.25C109.246 31.25 108.888 31.1083 108.605 30.825C108.321 30.5417 108.18 30.175 108.18 29.725V14.025C108.18 13.5917 108.321 13.2333 108.605 12.95C108.888 12.65 109.246 12.5 109.68 12.5C110.113 12.5 110.471 12.65 110.755 12.95C111.038 13.2333 111.18 13.5917 111.18 14.025V20.375L110.755 20.15C110.755 19.9333 110.871 19.675 111.105 19.375C111.338 19.0583 111.655 18.75 112.055 18.45C112.455 18.1333 112.913 17.875 113.43 17.675C113.963 17.475 114.521 17.375 115.105 17.375ZM114.73 20.125C113.996 20.125 113.355 20.3083 112.805 20.675C112.255 21.0417 111.821 21.5417 111.505 22.175C111.205 22.7917 111.055 23.5 111.055 24.3C111.055 25.0833 111.205 25.8 111.505 26.45C111.821 27.0833 112.255 27.5833 112.805 27.95C113.355 28.3167 113.996 28.5 114.73 28.5C115.463 28.5 116.096 28.3167 116.63 27.95C117.18 27.5833 117.605 27.0833 117.905 26.45C118.221 25.8 118.38 25.0833 118.38 24.3C118.38 23.5 118.221 22.7917 117.905 22.175C117.605 21.5417 117.18 21.0417 116.63 20.675C116.096 20.3083 115.463 20.125 114.73 20.125ZM126.703 29.475C126.703 29.9083 126.561 30.275 126.278 30.575C125.995 30.8583 125.636 31 125.203 31C124.77 31 124.411 30.8583 124.128 30.575C123.845 30.275 123.703 29.9083 123.703 29.475V19.15C123.703 18.7167 123.845 18.3583 124.128 18.075C124.411 17.775 124.77 17.625 125.203 17.625C125.636 17.625 125.995 17.775 126.278 18.075C126.561 18.3583 126.703 18.7167 126.703 19.15V29.475ZM125.178 16C124.611 16 124.211 15.9083 123.978 15.725C123.745 15.5417 123.628 15.2167 123.628 14.75V14.275C123.628 13.7917 123.753 13.4667 124.003 13.3C124.27 13.1167 124.67 13.025 125.203 13.025C125.786 13.025 126.195 13.1167 126.428 13.3C126.661 13.4833 126.778 13.8083 126.778 14.275V14.75C126.778 15.2333 126.653 15.5667 126.403 15.75C126.153 15.9167 125.745 16 125.178 16ZM136.661 12.5C137.028 12.5 137.386 12.55 137.736 12.65C138.086 12.75 138.378 12.9167 138.611 13.15C138.844 13.3667 138.961 13.6583 138.961 14.025C138.961 14.4417 138.836 14.775 138.586 15.025C138.353 15.2583 138.078 15.375 137.761 15.375C137.611 15.375 137.386 15.3417 137.086 15.275C136.786 15.1917 136.494 15.15 136.211 15.15C135.794 15.15 135.469 15.2417 135.236 15.425C135.019 15.6083 134.869 15.825 134.786 16.075C134.703 16.3083 134.661 16.5167 134.661 16.7V29.475C134.661 29.9083 134.519 30.275 134.236 30.575C133.953 30.8583 133.594 31 133.161 31C132.728 31 132.369 30.8583 132.086 30.575C131.803 30.275 131.661 29.9083 131.661 29.475V16.725C131.661 15.5417 132.078 14.5417 132.911 13.725C133.744 12.9083 134.994 12.5 136.661 12.5ZM136.936 17.875C137.336 17.875 137.669 18.0083 137.936 18.275C138.203 18.525 138.336 18.85 138.336 19.25C138.336 19.65 138.203 19.9833 137.936 20.25C137.669 20.5 137.336 20.625 136.936 20.625H130.311C129.911 20.625 129.578 20.5 129.311 20.25C129.044 19.9833 128.911 19.65 128.911 19.25C128.911 18.85 129.044 18.525 129.311 18.275C129.578 18.0083 129.911 17.875 130.311 17.875H136.936ZM150.624 17.625C151.058 17.625 151.416 17.775 151.699 18.075C151.983 18.3583 152.124 18.7167 152.124 19.15V29.775C152.124 31.3083 151.833 32.525 151.249 33.425C150.683 34.3417 149.916 35 148.949 35.4C147.983 35.8 146.899 36 145.699 36C145.166 36 144.599 35.9583 143.999 35.875C143.399 35.7917 142.908 35.6667 142.524 35.5C142.024 35.2833 141.674 35.0083 141.474 34.675C141.291 34.3583 141.258 34.0167 141.374 33.65C141.524 33.1667 141.766 32.8333 142.099 32.65C142.433 32.4833 142.783 32.4667 143.149 32.6C143.416 32.6833 143.766 32.8083 144.199 32.975C144.633 33.1583 145.133 33.25 145.699 33.25C146.466 33.25 147.099 33.1417 147.599 32.925C148.116 32.725 148.499 32.375 148.749 31.875C149.016 31.3917 149.149 30.725 149.149 29.875V28.2L149.674 28.8C149.391 29.35 149.033 29.8083 148.599 30.175C148.183 30.525 147.683 30.7917 147.099 30.975C146.516 31.1583 145.849 31.25 145.099 31.25C144.216 31.25 143.441 31.05 142.774 30.65C142.124 30.2333 141.616 29.6667 141.249 28.95C140.883 28.2167 140.699 27.3833 140.699 26.45V19.15C140.699 18.7167 140.841 18.3583 141.124 18.075C141.408 17.775 141.766 17.625 142.199 17.625C142.633 17.625 142.991 17.775 143.274 18.075C143.558 18.3583 143.699 18.7167 143.699 19.15V25.55C143.699 26.6333 143.933 27.4 144.399 27.85C144.883 28.2833 145.549 28.5 146.399 28.5C146.983 28.5 147.474 28.3917 147.874 28.175C148.274 27.9417 148.583 27.6083 148.799 27.175C149.016 26.725 149.124 26.1833 149.124 25.55V19.15C149.124 18.7167 149.266 18.3583 149.549 18.075C149.833 17.775 150.191 17.625 150.624 17.625Z" fill="#02A880"/>
<path d="M70.04 43.44V49H69.128V46.568H66.512V49H65.6V43.44H66.512V45.824H69.128V43.44H70.04ZM75.2806 46.688C75.2806 46.8533 75.27 47.0027 75.2486 47.136H71.8806C71.9073 47.488 72.038 47.7707 72.2726 47.984C72.5073 48.1973 72.7953 48.304 73.1366 48.304C73.6273 48.304 73.974 48.0987 74.1766 47.688H75.1606C75.0273 48.0933 74.7846 48.4267 74.4326 48.688C74.086 48.944 73.654 49.072 73.1366 49.072C72.7153 49.072 72.3366 48.9787 72.0006 48.792C71.67 48.6 71.4086 48.3333 71.2166 47.992C71.03 47.6453 70.9366 47.2453 70.9366 46.792C70.9366 46.3387 71.0273 45.9413 71.2086 45.6C71.3953 45.2533 71.654 44.9867 71.9846 44.8C72.3206 44.6133 72.7046 44.52 73.1366 44.52C73.5526 44.52 73.9233 44.6107 74.2486 44.792C74.574 44.9733 74.8273 45.2293 75.0086 45.56C75.19 45.8853 75.2806 46.2613 75.2806 46.688ZM74.3286 46.4C74.3233 46.064 74.2033 45.7947 73.9686 45.592C73.734 45.3893 73.4433 45.288 73.0966 45.288C72.782 45.288 72.5126 45.3893 72.2886 45.592C72.0646 45.7893 71.9313 46.0587 71.8886 46.4H74.3286ZM77.0901 45.232C77.2235 45.008 77.3995 44.8347 77.6181 44.712C77.8421 44.584 78.1061 44.52 78.4101 44.52V45.464H78.1781C77.8208 45.464 77.5488 45.5547 77.3621 45.736C77.1808 45.9173 77.0901 46.232 77.0901 46.68V49H76.1781V44.592H77.0901V45.232ZM80.1604 45.248C80.3151 45.0347 80.5258 44.8613 80.7924 44.728C81.0644 44.5893 81.3658 44.52 81.6964 44.52C82.0858 44.52 82.4378 44.6133 82.7524 44.8C83.0671 44.9867 83.3151 45.2533 83.4964 45.6C83.6778 45.9413 83.7684 46.3333 83.7684 46.776C83.7684 47.2187 83.6778 47.616 83.4964 47.968C83.3151 48.3147 83.0644 48.5867 82.7444 48.784C82.4298 48.976 82.0804 49.072 81.6964 49.072C81.3551 49.072 81.0511 49.0053 80.7844 48.872C80.5231 48.7387 80.3151 48.568 80.1604 48.36V49H79.2484V43.08H80.1604V45.248ZM82.8404 46.776C82.8404 46.472 82.7764 46.2107 82.6484 45.992C82.5258 45.768 82.3604 45.6 82.1524 45.488C81.9498 45.3707 81.7311 45.312 81.4964 45.312C81.2671 45.312 81.0484 45.3707 80.8404 45.488C80.6378 45.6053 80.4724 45.776 80.3444 46C80.2218 46.224 80.1604 46.488 80.1604 46.792C80.1604 47.096 80.2218 47.3627 80.3444 47.592C80.4724 47.816 80.6378 47.9867 80.8404 48.104C81.0484 48.2213 81.2671 48.28 81.4964 48.28C81.7311 48.28 81.9498 48.2213 82.1524 48.104C82.3604 47.9813 82.5258 47.8053 82.6484 47.576C82.7764 47.3467 82.8404 47.08 82.8404 46.776ZM84.3663 46.776C84.3663 46.3333 84.457 45.9413 84.6383 45.6C84.825 45.2587 85.0756 44.9947 85.3903 44.808C85.7103 44.616 86.0623 44.52 86.4463 44.52C86.793 44.52 87.0943 44.5893 87.3503 44.728C87.6116 44.8613 87.8196 45.0293 87.9743 45.232V44.592H88.8943V49H87.9743V48.344C87.8196 48.552 87.609 48.7253 87.3423 48.864C87.0756 49.0027 86.7716 49.072 86.4303 49.072C86.0516 49.072 85.705 48.976 85.3903 48.784C85.0756 48.5867 84.825 48.3147 84.6383 47.968C84.457 47.616 84.3663 47.2187 84.3663 46.776ZM87.9743 46.792C87.9743 46.488 87.9103 46.224 87.7823 46C87.6596 45.776 87.497 45.6053 87.2943 45.488C87.0916 45.3707 86.873 45.312 86.6383 45.312C86.4036 45.312 86.185 45.3707 85.9823 45.488C85.7796 45.6 85.6143 45.768 85.4863 45.992C85.3636 46.2107 85.3023 46.472 85.3023 46.776C85.3023 47.08 85.3636 47.3467 85.4863 47.576C85.6143 47.8053 85.7796 47.9813 85.9823 48.104C86.1903 48.2213 86.409 48.28 86.6383 48.28C86.873 48.28 87.0916 48.2213 87.2943 48.104C87.497 47.9867 87.6596 47.816 87.7823 47.592C87.9103 47.3627 87.9743 47.096 87.9743 46.792ZM91.0042 43.08V49H90.0922V43.08H91.0042ZM96.1117 49.056C95.7384 49.056 95.4024 48.992 95.1037 48.864C94.805 48.7307 94.5704 48.544 94.3997 48.304C94.229 48.064 94.1437 47.784 94.1437 47.464H95.1197C95.141 47.704 95.2344 47.9013 95.3997 48.056C95.5704 48.2107 95.8077 48.288 96.1117 48.288C96.4264 48.288 96.6717 48.2133 96.8477 48.064C97.0237 47.9093 97.1117 47.712 97.1117 47.472C97.1117 47.2853 97.0557 47.1333 96.9437 47.016C96.837 46.8987 96.701 46.808 96.5357 46.744C96.3757 46.68 96.1517 46.6107 95.8637 46.536C95.501 46.44 95.205 46.344 94.9757 46.248C94.7517 46.1467 94.5597 45.992 94.3997 45.784C94.2397 45.576 94.1597 45.2987 94.1597 44.952C94.1597 44.632 94.2397 44.352 94.3997 44.112C94.5597 43.872 94.7837 43.688 95.0717 43.56C95.3597 43.432 95.693 43.368 96.0717 43.368C96.6104 43.368 97.0504 43.504 97.3917 43.776C97.7384 44.0427 97.9304 44.4107 97.9677 44.88H96.9597C96.9437 44.6773 96.8477 44.504 96.6717 44.36C96.4957 44.216 96.2637 44.144 95.9757 44.144C95.7144 44.144 95.501 44.2107 95.3357 44.344C95.1704 44.4773 95.0877 44.6693 95.0877 44.92C95.0877 45.0907 95.1384 45.232 95.2397 45.344C95.3464 45.4507 95.4797 45.536 95.6397 45.6C95.7997 45.664 96.0184 45.7333 96.2957 45.808C96.6637 45.9093 96.9624 46.0107 97.1917 46.112C97.4264 46.2133 97.6237 46.3707 97.7837 46.584C97.949 46.792 98.0317 47.072 98.0317 47.424C98.0317 47.7067 97.9544 47.9733 97.7997 48.224C97.6504 48.4747 97.429 48.6773 97.1357 48.832C96.8477 48.9813 96.5064 49.056 96.1117 49.056ZM101.02 49.072C100.604 49.072 100.228 48.9787 99.8918 48.792C99.5558 48.6 99.2918 48.3333 99.0998 47.992C98.9078 47.6453 98.8118 47.2453 98.8118 46.792C98.8118 46.344 98.9105 45.9467 99.1078 45.6C99.3051 45.2533 99.5745 44.9867 99.9158 44.8C100.257 44.6133 100.638 44.52 101.06 44.52C101.481 44.52 101.862 44.6133 102.204 44.8C102.545 44.9867 102.814 45.2533 103.012 45.6C103.209 45.9467 103.308 46.344 103.308 46.792C103.308 47.24 103.206 47.6373 103.004 47.984C102.801 48.3307 102.524 48.6 102.172 48.792C101.825 48.9787 101.441 49.072 101.02 49.072ZM101.02 48.28C101.254 48.28 101.473 48.224 101.676 48.112C101.884 48 102.052 47.832 102.18 47.608C102.308 47.384 102.372 47.112 102.372 46.792C102.372 46.472 102.31 46.2027 102.188 45.984C102.065 45.76 101.902 45.592 101.7 45.48C101.497 45.368 101.278 45.312 101.044 45.312C100.809 45.312 100.59 45.368 100.388 45.48C100.19 45.592 100.033 45.76 99.9158 45.984C99.7985 46.2027 99.7398 46.472 99.7398 46.792C99.7398 47.2667 99.8598 47.6347 100.1 47.896C100.345 48.152 100.652 48.28 101.02 48.28ZM105.121 43.08V49H104.209V43.08H105.121ZM110.311 44.592V49H109.399V48.48C109.255 48.6613 109.065 48.8053 108.831 48.912C108.601 49.0133 108.356 49.064 108.095 49.064C107.748 49.064 107.436 48.992 107.159 48.848C106.887 48.704 106.671 48.4907 106.511 48.208C106.356 47.9253 106.279 47.584 106.279 47.184V44.592H107.183V47.048C107.183 47.4427 107.281 47.7467 107.479 47.96C107.676 48.168 107.945 48.272 108.287 48.272C108.628 48.272 108.897 48.168 109.095 47.96C109.297 47.7467 109.399 47.4427 109.399 47.048V44.592H110.311ZM112.578 45.336V47.776C112.578 47.9413 112.615 48.0613 112.69 48.136C112.77 48.2053 112.903 48.24 113.09 48.24H113.65V49H112.93C112.519 49 112.205 48.904 111.986 48.712C111.767 48.52 111.658 48.208 111.658 47.776V45.336H111.138V44.592H111.658V43.496H112.578V44.592H113.65V45.336H112.578ZM114.955 44.008C114.789 44.008 114.651 43.952 114.539 43.84C114.427 43.728 114.371 43.5893 114.371 43.424C114.371 43.2587 114.427 43.12 114.539 43.008C114.651 42.896 114.789 42.84 114.955 42.84C115.115 42.84 115.251 42.896 115.363 43.008C115.475 43.12 115.531 43.2587 115.531 43.424C115.531 43.5893 115.475 43.728 115.363 43.84C115.251 43.952 115.115 44.008 114.955 44.008ZM115.403 44.592V49H114.491V44.592H115.403ZM118.512 49.072C118.096 49.072 117.72 48.9787 117.384 48.792C117.048 48.6 116.784 48.3333 116.592 47.992C116.4 47.6453 116.304 47.2453 116.304 46.792C116.304 46.344 116.403 45.9467 116.6 45.6C116.797 45.2533 117.067 44.9867 117.408 44.8C117.749 44.6133 118.131 44.52 118.552 44.52C118.973 44.52 119.355 44.6133 119.696 44.8C120.037 44.9867 120.307 45.2533 120.504 45.6C120.701 45.9467 120.8 46.344 120.8 46.792C120.8 47.24 120.699 47.6373 120.496 47.984C120.293 48.3307 120.016 48.6 119.664 48.792C119.317 48.9787 118.933 49.072 118.512 49.072ZM118.512 48.28C118.747 48.28 118.965 48.224 119.168 48.112C119.376 48 119.544 47.832 119.672 47.608C119.8 47.384 119.864 47.112 119.864 46.792C119.864 46.472 119.803 46.2027 119.68 45.984C119.557 45.76 119.395 45.592 119.192 45.48C118.989 45.368 118.771 45.312 118.536 45.312C118.301 45.312 118.083 45.368 117.88 45.48C117.683 45.592 117.525 45.76 117.408 45.984C117.291 46.2027 117.232 46.472 117.232 46.792C117.232 47.2667 117.352 47.6347 117.592 47.896C117.837 48.152 118.144 48.28 118.512 48.28ZM123.926 44.52C124.272 44.52 124.582 44.592 124.854 44.736C125.131 44.88 125.347 45.0933 125.502 45.376C125.656 45.6587 125.734 46 125.734 46.4V49H124.83V46.536C124.83 46.1413 124.731 45.84 124.534 45.632C124.336 45.4187 124.067 45.312 123.726 45.312C123.384 45.312 123.112 45.4187 122.91 45.632C122.712 45.84 122.614 46.1413 122.614 46.536V49H121.702V44.592H122.614V45.096C122.763 44.9147 122.952 44.7733 123.182 44.672C123.416 44.5707 123.664 44.52 123.926 44.52ZM128.497 49.072C128.15 49.072 127.838 49.0107 127.561 48.888C127.289 48.76 127.073 48.5893 126.913 48.376C126.753 48.1573 126.668 47.9147 126.657 47.648H127.601C127.617 47.8347 127.705 47.992 127.865 48.12C128.03 48.2427 128.236 48.304 128.481 48.304C128.737 48.304 128.934 48.256 129.073 48.16C129.217 48.0587 129.289 47.9307 129.289 47.776C129.289 47.6107 129.209 47.488 129.049 47.408C128.894 47.328 128.646 47.24 128.305 47.144C127.974 47.0533 127.705 46.9653 127.497 46.88C127.289 46.7947 127.108 46.664 126.953 46.488C126.804 46.312 126.729 46.08 126.729 45.792C126.729 45.5573 126.798 45.344 126.937 45.152C127.076 44.9547 127.273 44.8 127.529 44.688C127.79 44.576 128.089 44.52 128.425 44.52C128.926 44.52 129.329 44.648 129.633 44.904C129.942 45.1547 130.108 45.4987 130.129 45.936H129.217C129.201 45.7387 129.121 45.5813 128.977 45.464C128.833 45.3467 128.638 45.288 128.393 45.288C128.153 45.288 127.969 45.3333 127.841 45.424C127.713 45.5147 127.649 45.6347 127.649 45.784C127.649 45.9013 127.692 46 127.777 46.08C127.862 46.16 127.966 46.224 128.089 46.272C128.212 46.3147 128.393 46.3707 128.633 46.44C128.953 46.5253 129.214 46.6133 129.417 46.704C129.625 46.7893 129.804 46.9173 129.953 47.088C130.102 47.2587 130.18 47.4853 130.185 47.768C130.185 48.0187 130.116 48.2427 129.977 48.44C129.838 48.6373 129.641 48.792 129.385 48.904C129.134 49.016 128.838 49.072 128.497 49.072ZM135.096 45.336H134.28V49H133.36V45.336H132.84V44.592H133.36V44.28C133.36 43.7733 133.494 43.4053 133.76 43.176C134.032 42.9413 134.456 42.824 135.032 42.824V43.584C134.755 43.584 134.56 43.6373 134.448 43.744C134.336 43.8453 134.28 44.024 134.28 44.28V44.592H135.096V45.336ZM137.817 49.072C137.401 49.072 137.025 48.9787 136.689 48.792C136.353 48.6 136.089 48.3333 135.897 47.992C135.705 47.6453 135.609 47.2453 135.609 46.792C135.609 46.344 135.707 45.9467 135.905 45.6C136.102 45.2533 136.371 44.9867 136.713 44.8C137.054 44.6133 137.435 44.52 137.857 44.52C138.278 44.52 138.659 44.6133 139.001 44.8C139.342 44.9867 139.611 45.2533 139.809 45.6C140.006 45.9467 140.105 46.344 140.105 46.792C140.105 47.24 140.003 47.6373 139.801 47.984C139.598 48.3307 139.321 48.6 138.969 48.792C138.622 48.9787 138.238 49.072 137.817 49.072ZM137.817 48.28C138.051 48.28 138.27 48.224 138.473 48.112C138.681 48 138.849 47.832 138.977 47.608C139.105 47.384 139.169 47.112 139.169 46.792C139.169 46.472 139.107 46.2027 138.985 45.984C138.862 45.76 138.699 45.592 138.497 45.48C138.294 45.368 138.075 45.312 137.841 45.312C137.606 45.312 137.387 45.368 137.185 45.48C136.987 45.592 136.83 45.76 136.713 45.984C136.595 46.2027 136.537 46.472 136.537 46.792C136.537 47.2667 136.657 47.6347 136.897 47.896C137.142 48.152 137.449 48.28 137.817 48.28ZM141.918 45.232C142.052 45.008 142.228 44.8347 142.446 44.712C142.67 44.584 142.934 44.52 143.238 44.52V45.464H143.006C142.649 45.464 142.377 45.5547 142.19 45.736C142.009 45.9173 141.918 46.232 141.918 46.68V49H141.006V44.592H141.918V45.232ZM145.851 46.776C145.851 46.3333 145.941 45.9413 146.123 45.6C146.309 45.2587 146.56 44.9947 146.875 44.808C147.195 44.616 147.547 44.52 147.931 44.52C148.277 44.52 148.579 44.5893 148.835 44.728C149.096 44.8613 149.304 45.0293 149.459 45.232V44.592H150.379V49H149.459V48.344C149.304 48.552 149.093 48.7253 148.827 48.864C148.56 49.0027 148.256 49.072 147.915 49.072C147.536 49.072 147.189 48.976 146.875 48.784C146.56 48.5867 146.309 48.3147 146.123 47.968C145.941 47.616 145.851 47.2187 145.851 46.776ZM149.459 46.792C149.459 46.488 149.395 46.224 149.267 46C149.144 45.776 148.981 45.6053 148.779 45.488C148.576 45.3707 148.357 45.312 148.123 45.312C147.888 45.312 147.669 45.3707 147.467 45.488C147.264 45.6 147.099 45.768 146.971 45.992C146.848 46.2107 146.787 46.472 146.787 46.776C146.787 47.08 146.848 47.3467 146.971 47.576C147.099 47.8053 147.264 47.9813 147.467 48.104C147.675 48.2213 147.893 48.28 148.123 48.28C148.357 48.28 148.576 48.2213 148.779 48.104C148.981 47.9867 149.144 47.816 149.267 47.592C149.395 47.3627 149.459 47.096 149.459 46.792ZM158.095 43.44V49H157.183V46.568H154.567V49H153.655V43.44H154.567V45.824H157.183V43.44H158.095ZM163.335 46.688C163.335 46.8533 163.325 47.0027 163.303 47.136H159.935C159.962 47.488 160.093 47.7707 160.327 47.984C160.562 48.1973 160.85 48.304 161.191 48.304C161.682 48.304 162.029 48.0987 162.231 47.688H163.215C163.082 48.0933 162.839 48.4267 162.487 48.688C162.141 48.944 161.709 49.072 161.191 49.072C160.77 49.072 160.391 48.9787 160.055 48.792C159.725 48.6 159.463 48.3333 159.271 47.992C159.085 47.6453 158.991 47.2453 158.991 46.792C158.991 46.3387 159.082 45.9413 159.263 45.6C159.45 45.2533 159.709 44.9867 160.039 44.8C160.375 44.6133 160.759 44.52 161.191 44.52C161.607 44.52 161.978 44.6107 162.303 44.792C162.629 44.9733 162.882 45.2293 163.063 45.56C163.245 45.8853 163.335 46.2613 163.335 46.688ZM162.383 46.4C162.378 46.064 162.258 45.7947 162.023 45.592C161.789 45.3893 161.498 45.288 161.151 45.288C160.837 45.288 160.567 45.3893 160.343 45.592C160.119 45.7893 159.986 46.0587 159.943 46.4H162.383ZM163.929 46.776C163.929 46.3333 164.019 45.9413 164.201 45.6C164.387 45.2587 164.638 44.9947 164.953 44.808C165.273 44.616 165.625 44.52 166.009 44.52C166.355 44.52 166.657 44.5893 166.913 44.728C167.174 44.8613 167.382 45.0293 167.537 45.232V44.592H168.457V49H167.537V48.344C167.382 48.552 167.171 48.7253 166.905 48.864C166.638 49.0027 166.334 49.072 165.993 49.072C165.614 49.072 165.267 48.976 164.953 48.784C164.638 48.5867 164.387 48.3147 164.201 47.968C164.019 47.616 163.929 47.2187 163.929 46.776ZM167.537 46.792C167.537 46.488 167.473 46.224 167.345 46C167.222 45.776 167.059 45.6053 166.857 45.488C166.654 45.3707 166.435 45.312 166.201 45.312C165.966 45.312 165.747 45.3707 165.545 45.488C165.342 45.6 165.177 45.768 165.049 45.992C164.926 46.2107 164.865 46.472 164.865 46.776C164.865 47.08 164.926 47.3467 165.049 47.576C165.177 47.8053 165.342 47.9813 165.545 48.104C165.753 48.2213 165.971 48.28 166.201 48.28C166.435 48.28 166.654 48.2213 166.857 48.104C167.059 47.9867 167.222 47.816 167.345 47.592C167.473 47.3627 167.537 47.096 167.537 46.792ZM170.567 43.08V49H169.655V43.08H170.567ZM172.828 45.336V47.776C172.828 47.9413 172.865 48.0613 172.94 48.136C173.02 48.2053 173.153 48.24 173.34 48.24H173.9V49H173.18C172.769 49 172.455 48.904 172.236 48.712C172.017 48.52 171.908 48.208 171.908 47.776V45.336H171.388V44.592H171.908V43.496H172.828V44.592H173.9V45.336H172.828ZM177.021 44.52C177.357 44.52 177.655 44.592 177.917 44.736C178.183 44.88 178.391 45.0933 178.541 45.376C178.695 45.6587 178.773 46 178.773 46.4V49H177.869V46.536C177.869 46.1413 177.77 45.84 177.573 45.632C177.375 45.4187 177.106 45.312 176.765 45.312C176.423 45.312 176.151 45.4187 175.949 45.632C175.751 45.84 175.653 46.1413 175.653 46.536V49H174.741V43.08H175.653V45.104C175.807 44.9173 176.002 44.7733 176.237 44.672C176.477 44.5707 176.738 44.52 177.021 44.52ZM183.904 44.592L181.2 51.072H180.256L181.152 48.928L179.416 44.592H180.432L181.672 47.952L182.96 44.592H183.904ZM187.582 48.264H189.462V49H186.67V43.44H187.582V48.264ZM190.689 44.008C190.524 44.008 190.385 43.952 190.273 43.84C190.161 43.728 190.105 43.5893 190.105 43.424C190.105 43.2587 190.161 43.12 190.273 43.008C190.385 42.896 190.524 42.84 190.689 42.84C190.849 42.84 190.985 42.896 191.097 43.008C191.209 43.12 191.265 43.2587 191.265 43.424C191.265 43.5893 191.209 43.728 191.097 43.84C190.985 43.952 190.849 44.008 190.689 44.008ZM191.137 44.592V49H190.225V44.592H191.137ZM194.182 45.336H193.366V49H192.446V45.336H191.926V44.592H192.446V44.28C192.446 43.7733 192.58 43.4053 192.846 43.176C193.118 42.9413 193.542 42.824 194.118 42.824V43.584C193.841 43.584 193.646 43.6373 193.534 43.744C193.422 43.8453 193.366 44.024 193.366 44.28V44.592H194.182V45.336ZM199.031 46.688C199.031 46.8533 199.02 47.0027 198.999 47.136H195.631C195.657 47.488 195.788 47.7707 196.023 47.984C196.257 48.1973 196.545 48.304 196.887 48.304C197.377 48.304 197.724 48.0987 197.927 47.688H198.911C198.777 48.0933 198.535 48.4267 198.183 48.688C197.836 48.944 197.404 49.072 196.887 49.072C196.465 49.072 196.087 48.9787 195.751 48.792C195.42 48.6 195.159 48.3333 194.967 47.992C194.78 47.6453 194.687 47.2453 194.687 46.792C194.687 46.3387 194.777 45.9413 194.959 45.6C195.145 45.2533 195.404 44.9867 195.735 44.8C196.071 44.6133 196.455 44.52 196.887 44.52C197.303 44.52 197.673 44.6107 197.999 44.792C198.324 44.9733 198.577 45.2293 198.759 45.56C198.94 45.8853 199.031 46.2613 199.031 46.688ZM198.079 46.4C198.073 46.064 197.953 45.7947 197.719 45.592C197.484 45.3893 197.193 45.288 196.847 45.288C196.532 45.288 196.263 45.3893 196.039 45.592C195.815 45.7893 195.681 46.0587 195.639 46.4H198.079Z" fill="#02A880"/>
</svg>
