<svg width="60" height="60" viewBox="0 0 60 60" fill="none" xmlns="http://www.w3.org/2000/svg">
<path d="M50.0239 33.3182H10.9546C11.6224 36.6684 10.2867 56.4344 30.6562 56.7694C46.9518 57.0374 50.3578 41.247 50.0239 33.3182Z" fill="white"/>
<path d="M27.6364 15.7273C25.3725 13.9899 22.2031 9.21212 27.6364 4C29.7973 5.90025 32.8227 10.9061 27.6364 15.7273Z" fill="white"/>
<path d="M51.6414 5.95459C32.2076 7.15223 28.1647 20.2042 28.5725 26.5805C30.3201 24.9726 33.8154 21.9231 34.1649 21.5904C34.5145 21.2577 36.4369 19.0953 36.6117 18.929C36.7515 18.7959 36.6699 17.0993 36.6117 16.2676C36.7515 14.2715 37.835 14.7705 38.3593 15.2695C39.1166 15.9349 41.0157 17.5317 42.5537 18.5963C44.4761 19.927 43.777 20.426 43.078 20.925C42.3789 21.4241 40.2817 21.4241 39.4079 21.5904C38.7088 21.7235 35.5048 26.8578 33.8154 29.4083C51.2919 29.5414 52.9813 13.8279 51.6414 5.95459Z" fill="white"/>
<path d="M24.5914 29.4091C25.0245 24.1513 22.5125 12.8812 9 9.86365C9.37896 15.9787 13.0278 28.449 24.5914 29.4091Z" fill="white"/>
</svg>
